HIERARCHY
ROOT root
{
	OFFSET 0.000000 0.000000 0.000000
	CHANNELS 6 Xposition Yposition Zposition Zrotation Yrotation Xrotation
	JOINT lhip
	{
		OFFSET 0.058581 -0.082280 -0.017664
		CHANNELS 3 Zrotation Yrotation Xrotation
		JOINT lknee
		{
			OFFSET 0.043451 -0.386469 0.008037
			CHANNELS 3 Zrotation Yrotation Xrotation
			JOINT lankle
			{
				OFFSET -0.014790 -0.426874 -0.037428
				CHANNELS 3 Zrotation Yrotation Xrotation
				JOINT ltoe
				{
					OFFSET 0.041054 -0.060286 0.122042
					CHANNELS 3 Zrotation Yrotation Xrotation
					End Site
					{
						OFFSET 0.000000 0.000000 0.000000
					}
				}
			}
		}
	}
	JOINT rhip
	{
		OFFSET -0.060310 -0.090513 -0.013543
		CHANNELS 3 Zrotation Yrotation Xrotation
		JOINT rknee
		{
			OFFSET -0.043257 -0.383688 -0.004843
			CHANNELS 3 Zrotation Yrotation Xrotation
			JOINT rankle
			{
				OFFSET 0.019056 -0.420046 -0.034562
				CHANNELS 3 Zrotation Yrotation Xrotation
				JOINT rtoe
				{
					OFFSET -0.034840 -0.062106 0.130323
					CHANNELS 3 Zrotation Yrotation Xrotation
					End Site
					{
						OFFSET 0.000000 0.000000 0.000000
					}
				}
			}
		}
	}
	JOINT lowerback
	{
		OFFSET 0.004439 0.124404 -0.038385
		CHANNELS 3 Zrotation Yrotation Xrotation
		JOINT upperback
		{
			OFFSET 0.004488 0.137956 0.026820
			CHANNELS 3 Zrotation Yrotation Xrotation
			JOINT chest
			{
				OFFSET -0.002265 0.056032 0.002855
				CHANNELS 3 Zrotation Yrotation Xrotation
				JOINT lowerneck
				{
					OFFSET -0.013390 0.211636 -0.033468
					CHANNELS 3 Zrotation Yrotation Xrotation
					JOINT upperneck
					{
						OFFSET 0.010113 0.088937 0.050410
						CHANNELS 3 Zrotation Yrotation Xrotation
						End Site
						{
							OFFSET 0.000000 0.000000 0.000000
						}
					}
				}
				JOINT lclavicle
				{
					OFFSET 0.071702 0.114000 -0.018898
					CHANNELS 3 Zrotation Yrotation Xrotation
					JOINT lshoulder
					{
						OFFSET 0.122921 0.045205 -0.019046
						CHANNELS 3 Zrotation Yrotation Xrotation
						JOINT lelbow
						{
							OFFSET 0.255332 -0.015649 -0.022946
							CHANNELS 3 Zrotation Yrotation Xrotation
							JOINT lwrist
							{
								OFFSET 0.265709 0.012698 -0.007375
								CHANNELS 3 Zrotation Yrotation Xrotation
								End Site
								{
									OFFSET 0.000000 0.000000 0.000000
								}
							}
						}
					}
				}
				JOINT rclavicle
				{
					OFFSET -0.082954 0.112472 -0.023707
					CHANNELS 3 Zrotation Yrotation Xrotation
					JOINT rshoulder
					{
						OFFSET -0.113228 0.046853 -0.008472
						CHANNELS 3 Zrotation Yrotation Xrotation
						JOINT relbow
						{
							OFFSET -0.260127 -0.014369 -0.031269
							CHANNELS 3 Zrotation Yrotation Xrotation
							JOINT rwrist
							{
								OFFSET -0.269108 0.006794 -0.006027
								CHANNELS 3 Zrotation Yrotation Xrotation
								End Site
								{
									OFFSET 0.000000 0.000000 0.000000
								}
							}
						}
					}
				}
			}
		}
	}
}
MOTION
Frames: 17
Frame Time: 0.033333
1.772032 0.752500 0.976434 -86.711924 3.153559 85.789223 1.495397 -1.842122 -0.318257 -3.549599 -14.900516 10.681443 4.935608 9.571436 -20.639461 0.000000 -0.000000 0.000000 4.777888 -1.379352 -0.813977 2.046044 0.923521 13.421916 1.170454 -8.587229 -17.471379 0.000000 -0.000000 0.000000 -0.599814 1.230846 9.389084 2.642760 -2.696525 4.217913 1.022470 -1.391023 4.672403 4.284346 1.824151 1.236324 -4.863947 -1.837515 12.527628 -23.283364 4.847324 4.912792 -61.430672 -5.289200 9.311202 9.933116 -28.435430 10.236077 -2.537656 -3.569372 -12.629183 21.629376 -3.472526 3.821212 61.981253 1.615834 10.093678 -14.472824 21.547681 0.442757 8.641248 2.563435 -10.418836 
1.773299 0.753338 0.976037 -86.683693 3.230035 86.264041 1.563613 -1.898366 -1.144611 -3.493343 -14.922128 11.054741 4.790455 9.792296 -20.957463 0.000000 -0.000000 0.000000 4.925508 -1.367159 -1.470294 2.045639 0.962681 13.531335 1.172111 -8.851718 -17.531501 0.000000 -0.000000 0.000000 -0.406094 1.231376 9.492108 2.748468 -2.791122 5.203870 1.018044 -1.381606 4.786134 4.294681 1.610985 1.738554 -4.692031 -1.941027 11.892266 -23.135918 4.910654 5.216168 -60.802820 -4.956405 9.048475 9.660560 -28.577395 10.441640 -2.545992 -3.729425 -12.726539 21.226217 -3.699860 4.052917 61.850149 1.185685 9.591667 -14.378253 21.396364 0.380015 8.327889 2.704221 -10.265665 
1.774743 0.754256 0.975678 -86.815656 3.208303 87.198911 1.576550 -2.171493 -2.560502 -3.553247 -14.739920 11.651017 4.775024 10.108650 -20.955618 0.000000 -0.000000 0.000000 5.019282 -1.135784 -2.821932 1.978635 1.080058 13.962782 1.324272 -9.075869 -17.639099 0.000000 -0.000000 0.000000 -0.272742 1.250154 10.275563 2.741224 -2.567212 4.487851 1.005055 -1.454483 5.072037 4.158954 1.425110 1.659552 -4.546590 -2.023577 11.680244 -22.730604 5.637967 5.460047 -60.237431 -4.351889 8.842704 8.933747 -28.728769 11.330490 -2.300582 -3.855200 -12.572669 20.820891 -4.482013 4.155497 61.810428 0.253768 9.355442 -14.275859 21.644785 0.619743 8.190981 2.796932 -10.819219 
1.776110 0.755351 0.975153 -86.949683 3.193483 88.061394 1.601171 -2.225762 -3.955245 -3.630127 -14.698145 12.391401 4.718900 10.303100 -21.160487 0.000000 -0.000000 0.000000 5.139299 -0.812425 -3.987508 1.896802 1.157107 14.259604 1.498505 -9.376754 -17.897856 0.000000 -0.000000 0.000000 -0.096897 1.180681 10.986182 2.718662 -2.474417 4.371097 0.923729 -1.435167 5.203620 4.025733 1.358066 1.746949 -4.470156 -2.268754 11.289933 -22.320028 6.251060 5.727057 -59.574567 -3.804772 8.478691 8.064891 -28.917189 11.710509 -2.826713 -3.850832 -12.749622 20.685456 -5.022314 4.472118 61.476493 -0.371199 8.957982 -13.866280 21.721717 0.671766 8.399946 3.005834 -10.610249 
1.777311 0.756054 0.974637 -87.117926 3.271260 88.970471 1.851434 -2.338861 -5.250162 -3.879754 -14.436697 12.857684 4.664128 10.409016 -21.265446 0.000000 -0.000000 0.000000 5.255145 -0.598095 -5.254281 1.936140 1.193686 14.579938 1.580019 -9.424934 -17.898257 0.000000 -0.000000 0.000000 0.131211 1.218333 11.764584 2.735715 -2.330170 4.279356 0.910399 -1.418139 5.190761 3.874870 1.261283 1.896525 -4.278276 -2.325713 10.855655 -22.110732 6.515514 6.142261 -59.182430 -3.100699 8.180209 7.897725 -28.894094 11.879207 -2.622302 -3.927035 -12.343343 20.419007 -5.410568 4.786337 61.306043 -1.114594 8.529882 -13.604777 22.121219 0.765315 8.386931 3.026399 -11.018074 
1.777723 0.757313 0.972885 -87.284214 3.162331 90.204163 1.669426 -2.753799 -7.554618 -3.912303 -14.020556 14.803333 4.783305 10.757958 -21.910830 0.000000 -0.000000 0.000000 5.164764 -0.350083 -6.960443 1.985890 1.238762 15.302072 1.648383 -9.622612 -18.105645 0.000000 -0.000000 0.000000 0.294530 1.588591 12.063961 2.792059 -2.388147 4.205242 0.769294 -1.450957 5.373632 3.836544 1.143501 2.150106 -4.108383 -2.483966 10.344633 -22.112309 6.853677 6.543304 -58.583299 -2.701155 8.056209 7.531636 -28.554031 12.019567 -2.506153 -3.827890 -12.283133 20.457438 -6.016601 4.884902 61.107746 -1.560042 8.260601 -13.399975 21.272151 0.687153 7.972522 2.838984 -11.039983 
1.780296 0.758580 0.971782 -87.293221 3.332591 91.179249 1.813545 -3.291464 -9.952567 -4.071441 -13.555685 17.108511 4.662018 11.064384 -22.502056 0.000000 -0.000000 0.000000 5.594780 0.343143 -8.840061 1.690018 1.113423 16.573559 1.777431 -10.238384 -18.591792 0.000000 -0.000000 0.000000 0.519949 1.202238 13.608546 2.820332 -2.175960 3.431574 0.746842 -1.625509 5.494282 3.809647 1.106443 1.822323 -4.092923 -2.513141 10.341633 -22.281583 7.485059 6.746283 -58.256132 -2.268754 7.642434 7.542586 -28.317659 12.128329 -3.181157 -4.042462 -11.827423 20.581324 -6.594470 4.817443 60.507496 -1.806838 8.124909 -13.094666 21.174049 1.378682 8.974397 3.085969 -10.169775 
1.779588 0.759006 0.968998 -87.447543 3.335177 92.051825 1.697899 -3.666549 -12.010441 -4.190815 -13.254650 19.509787 4.930974 11.439028 -23.601090 0.000000 -0.000000 0.000000 5.586597 0.344416 -10.502570 1.720988 0.936623 18.131965 1.798799 -9.953525 -19.467007 0.000000 -0.000000 0.000000 0.624689 1.630701 14.374897 2.947022 -2.336414 3.433422 0.754600 -1.692355 5.654181 3.876146 1.011191 2.031877 -3.913888 -2.848391 9.883833 -22.284074 7.570150 6.848401 -58.359382 -2.101399 7.532173 7.534932 -27.608913 11.988632 -2.868832 -3.721367 -11.603071 20.449458 -6.335887 5.037734 60.760445 -1.644204 7.834889 -13.160096 20.089741 1.191394 8.465776 2.519619 -10.322119 
1.782233 0.760047 0.965769 -87.946904 3.450028 93.145567 1.961497 -4.701549 -14.964791 -4.609792 -12.336815 22.844758 5.078124 12.158175 -24.446566 0.000000 -0.000000 0.000000 5.797462 1.944625 -13.336149 1.460930 0.515503 20.949734 1.926116 -10.719347 -20.209792 0.000000 -0.000000 0.000000 0.373437 1.469361 16.098486 3.010472 -1.780057 2.609344 0.956076 -1.623322 5.525062 3.822230 1.042941 1.947919 -3.839210 -3.034695 9.739541 -22.015023 7.663304 6.995992 -58.927214 -1.818661 7.496658 7.909897 -27.442440 11.849602 -3.549212 -3.797329 -12.024749 20.452083 -5.891016 5.479392 60.823983 -1.692715 7.965123 -13.352662 19.933306 1.021683 8.615374 2.765936 -10.903623 
1.783321 0.761231 0.960457 -88.404277 3.441286 93.794508 2.154026 -5.410026 -17.318826 -5.185159 -11.572282 26.163569 5.683878 12.775185 -25.839182 0.000000 -0.000000 0.000000 5.972078 2.857973 -16.158810 1.224263 0.384426 24.862466 1.499385 -11.188952 -21.652234 0.000000 -0.000000 0.000000 -0.197599 1.774324 17.386785 3.300959 -1.602329 3.243266 1.159781 -1.555845 5.142409 3.767711 1.068880 2.675684 -3.608412 -3.262582 8.969941 -21.762852 7.152819 7.187339 -59.753712 -1.786891 7.650146 8.625594 -27.678942 11.408661 -3.590470 -3.321943 -12.970256 20.469185 -5.011379 5.716564 61.200178 -1.396936 8.025632 -13.864086 19.965154 0.629755 8.860218 2.709131 -11.680515 
1.782840 0.762392 0.952892 -88.878057 3.308541 94.628781 2.356932 -6.218732 -20.291084 -5.992670 -10.523736 30.505060 6.002425 13.364760 -27.522129 0.000000 -0.000000 0.000000 5.955482 3.853737 -19.486790 1.000304 0.181955 29.578623 1.349966 -11.600869 -23.707582 0.000000 -0.000000 0.000000 -0.728328 1.968332 18.732221 3.437578 -1.466644 2.769205 1.142692 -1.662675 5.349276 4.009629 1.230946 2.812011 -3.543891 -3.546994 8.745456 -21.743993 7.194635 7.038498 -60.111160 -1.879529 7.851944 8.735547 -27.937359 11.387534 -3.244892 -2.905492 -13.586567 20.713652 -5.120665 5.357031 61.418671 -0.543425 8.428867 -14.006968 20.018816 1.221130 9.149898 2.540848 -11.579653 
1.779893 0.763112 0.943146 -89.486561 3.180943 94.777276 2.573801 -6.687732 -22.495486 -6.933404 -9.150099 34.986419 6.373622 13.963686 -29.604133 0.000000 -0.000000 0.000000 5.781407 4.367604 -21.813724 1.044500 -0.124961 34.176615 1.184616 -11.486373 -25.726655 0.000000 -0.000000 0.000000 -1.228898 2.249472 20.645639 3.483739 -1.346058 2.343498 1.165959 -1.632406 5.104491 4.122034 1.409797 2.827438 -3.494289 -3.816446 8.713819 -21.782534 6.707718 7.047457 -60.441789 -1.735831 7.856741 8.834002 -28.228036 11.337645 -3.269776 -2.883466 -13.899520 20.792242 -4.549020 5.426035 61.842417 -0.080685 8.536963 -14.272985 20.416453 1.277067 9.308504 2.572019 -12.030988 
1.775201 0.763449 0.930477 -89.746098 2.839152 95.052608 2.669483 -6.926679 -25.035391 -7.823799 -7.493371 39.844217 6.579483 14.187565 -31.898184 0.000000 -0.000000 0.000000 5.370139 4.729344 -24.567825 1.133653 -0.369498 39.622024 1.151570 -11.781449 -28.394109 0.000000 -0.000000 0.000000 -1.697220 2.224563 21.626493 3.360991 -1.430026 2.082229 0.886767 -1.705419 5.127454 4.240359 1.606579 2.698432 -3.682944 -3.959449 8.698011 -21.842713 5.964199 7.444574 -60.631183 -1.882829 7.904971 9.360078 -28.533453 10.907972 -2.762102 -2.666376 -14.266696 21.207964 -3.540183 5.603625 62.225976 0.675554 8.813529 -14.515479 20.505777 1.186168 9.385389 2.594810 -12.444734 
1.765637 0.762990 0.916429 -89.736715 2.596307 94.700509 2.688846 -7.323665 -26.270201 -8.952012 -6.378264 44.304070 6.642471 14.637364 -33.993886 0.000000 -0.000000 0.000000 4.353296 6.145826 -26.099857 1.500050 -2.002432 44.814785 1.751302 -12.133274 -31.357047 0.000000 -0.000000 0.000000 -1.825440 1.809320 23.007882 3.033385 -1.124154 1.328014 0.462591 -1.853805 6.475227 5.981058 4.494022 -2.685318 -1.140002 -3.661093 6.736033 -22.283610 5.485341 5.392304 -60.340636 -1.972339 8.766356 9.638561 -27.881765 10.280145 -2.326423 -3.398862 -13.585964 22.776812 -2.967304 3.326502 61.313551 0.731956 10.079483 -14.387288 20.432726 1.033844 9.690271 2.792021 -11.914606 
1.754574 0.762856 0.900830 -89.932294 2.288145 93.696158 2.320438 -7.261929 -26.631103 -9.908721 -5.323882 48.988109 6.753228 15.150062 -36.489324 0.000000 -0.000000 0.000000 4.174488 6.127920 -26.754274 1.538913 -2.099172 49.962087 1.684663 -12.487223 -34.139754 0.000000 -0.000000 0.000000 -2.025077 1.753771 24.252273 2.915376 -1.382072 1.196166 0.570293 -1.731918 5.817148 5.805299 4.328008 -3.621477 -1.480627 -2.909221 6.783681 -23.003090 3.907218 5.982010 -60.386016 -1.884840 7.976863 10.149830 -27.802570 9.567844 -1.548381 -2.862054 -13.868298 22.728579 -1.389213 4.223551 61.328990 1.270281 9.510835 -14.420475 20.730451 1.500927 9.637076 2.997682 -11.473017 
1.739196 0.762474 0.888008 -90.030467 1.849458 92.923443 1.641091 -7.424685 -26.262718 -10.573382 -4.613992 52.555169 6.525063 15.828488 -38.658744 0.000000 -0.000000 0.000000 3.990500 6.574598 -26.649085 1.002708 -2.347122 54.037299 1.955647 -13.034743 -36.187596 0.000000 -0.000000 0.000000 -2.099500 1.644077 24.629477 2.712082 -1.102627 0.330320 0.182274 -1.727168 6.313047 5.587903 4.971928 -4.898429 -1.043791 -3.533287 6.662546 -23.462249 3.211494 5.142741 -60.032019 -2.336320 8.508142 9.902146 -27.024200 9.492667 -1.074988 -3.181571 -13.675229 23.805865 -0.941203 3.064020 60.325225 1.053751 10.389759 -14.023302 21.215210 1.902810 9.674314 2.610396 -11.362722 
1.720322 0.763049 0.881143 -90.277436 1.687136 91.821872 0.948469 -6.862498 -24.180470 -11.011050 -4.785494 54.419679 6.165091 16.192121 -40.053988 0.000000 -0.000000 0.000000 4.690764 6.620764 -24.687354 0.831802 -1.446105 55.903859 2.347709 -14.093343 -37.477025 0.000000 -0.000000 0.000000 -1.927447 1.382798 24.590260 2.464506 -0.867972 -0.444158 -0.090687 -1.586227 6.182880 5.525187 4.926252 -5.033865 -1.357429 -3.185928 7.446196 -23.608148 3.006751 5.047015 -59.405954 -2.093743 8.409066 8.613049 -28.510952 11.031345 -1.457411 -3.318672 -12.796603 23.534569 -0.634575 2.904880 60.048113 0.542666 10.701967 -13.269467 22.965254 2.919761 9.911330 2.529233 -11.162852 
